<svg width="22" height="22" viewBox="0 0 22 22" fill="none" xmlns="http://www.w3.org/2000/svg">
<path fill-rule="evenodd" clip-rule="evenodd" d="M16.6111 2.77758C16.6111 1.33675 17.7811 0.166748 19.222 0.166748C20.6628 0.166748 21.8328 1.33675 21.8328 2.77758C21.8328 4.21841 20.6628 5.38841 19.222 5.38841C17.7811 5.38841 16.6111 4.21841 16.6111 2.77758ZM12.4402 13.9893L15.571 9.94957L15.5277 9.97124C15.701 9.73291 15.7335 9.42957 15.6143 9.15874C15.4963 8.88791 15.2352 8.70374 14.9546 8.68207C14.661 8.64957 14.3696 8.77957 14.1952 9.01791L11.5746 12.4087L8.57268 10.0471C8.38852 9.90624 8.17185 9.85099 7.95518 9.87374C7.7396 9.90624 7.5446 10.0243 7.41352 10.1977L4.20793 14.3696L4.14185 14.4671C3.95768 14.8127 4.04435 15.2568 4.36935 15.4962C4.52102 15.5937 4.68352 15.6587 4.86768 15.6587C5.11793 15.6696 5.35518 15.5385 5.50685 15.3337L8.22602 11.8335L11.3135 14.1529L11.411 14.2168C11.7577 14.401 12.191 14.3154 12.4402 13.9893ZM14.7368 2.09541C14.6935 2.36624 14.6718 2.63707 14.6718 2.90791C14.6718 5.34541 16.6435 7.31599 19.0702 7.31599C19.341 7.31599 19.601 7.28457 19.8718 7.24124V15.9827C19.8718 19.6562 17.7052 21.8337 14.0218 21.8337H6.0171C2.33268 21.8337 0.166016 19.6562 0.166016 15.9827V7.96707C0.166016 4.28374 2.33268 2.09541 6.0171 2.09541H14.7368Z" fill="#99A3AC"/>
</svg>
