<svg width="24" height="24" viewBox="0 0 24 24" fill="none" xmlns="http://www.w3.org/2000/svg">
<g clip-path="url(#clip0_5857_42336)">
<path d="M12.5179 23.9999C10.8834 23.4187 9.25023 22.8327 7.61195 22.2623C7.4043 22.1901 7.16852 22.1807 6.94492 22.1746C6.46305 22.162 5.98117 22.1709 5.48242 22.1709V16.6724C5.53586 16.6645 5.58695 16.6504 5.63852 16.6504C6.32477 16.649 7.01148 16.6387 7.69727 16.657C7.88383 16.6621 8.08258 16.7254 8.25039 16.8112C9.12461 17.2579 9.99273 17.7159 10.858 18.1799C11.211 18.3693 11.578 18.4579 11.9784 18.4546C13.0157 18.4467 14.0526 18.449 15.0899 18.4537C15.5371 18.456 15.808 18.7185 15.7954 19.1165C15.786 19.4076 15.5999 19.6429 15.3116 19.6935C15.1443 19.7226 14.9704 19.7212 14.7993 19.7217C13.4971 19.724 12.1945 19.7198 10.8923 19.7254C10.3462 19.7277 9.91211 20.0137 9.72086 20.4899C9.80055 20.496 9.87367 20.5059 9.94633 20.5059C11.6465 20.5068 13.3466 20.5152 15.0463 20.4979C15.3323 20.4951 15.6374 20.4234 15.899 20.3062C17.8827 19.4193 19.8557 18.5076 21.8395 17.6207C22.0391 17.5312 22.2965 17.5002 22.5126 17.534C22.8538 17.587 23.0695 17.8813 23.1102 18.2273C23.1505 18.5704 22.9898 18.8835 22.6635 19.0574C21.5774 19.6363 20.4885 20.2101 19.4001 20.7857C17.6095 21.7321 15.8207 22.6827 14.0254 23.6202C13.7254 23.7768 13.3954 23.8748 13.079 23.9999H12.5174H12.5179Z" fill="#99A3AC"/>
<path d="M16.1985 8.39574C18.5338 8.34512 20.5087 10.2932 20.549 12.6871C20.5883 15.0421 18.6758 16.987 16.266 17.0418C13.926 17.0948 11.9526 15.1875 11.9033 12.825C11.8527 10.3912 13.7362 8.44918 16.1985 8.39574ZM16.6654 10.7442C16.6747 10.6115 16.6822 10.5032 16.6893 10.3954C16.7104 10.0861 16.6654 10.0486 16.363 10.05C16.1362 10.0509 16.1146 10.1887 16.1151 10.3579C16.1155 10.5951 16.0888 10.7686 15.7757 10.8262C15.359 10.9026 15.0712 11.1796 14.9877 11.6207C14.879 12.1968 15.1152 12.6056 15.7147 12.8732C15.9491 12.9778 16.1929 13.0617 16.4235 13.1728C16.604 13.26 16.7108 13.4071 16.6827 13.6251C16.6546 13.8431 16.4746 13.9889 16.1737 14.0203C15.8221 14.0568 15.4954 13.979 15.1822 13.814C15.1185 13.7803 14.9662 13.7911 14.9371 13.8356C14.8016 14.0423 14.9338 14.4061 15.1691 14.4993C15.3332 14.5645 15.5062 14.6076 15.6815 14.6625C15.6637 14.842 15.6322 15.0121 15.6379 15.1809C15.6402 15.2479 15.7138 15.3515 15.7757 15.3703C16.0747 15.4621 16.1971 15.3623 16.2177 15.0379C16.2407 14.6765 16.2482 14.6981 16.5852 14.5814C16.8149 14.5021 17.0568 14.3911 17.2293 14.227C17.7496 13.7301 17.6104 12.8592 16.9701 12.5278C16.6668 12.3712 16.3401 12.2611 16.0312 12.1143C15.8446 12.0257 15.7551 11.8631 15.7996 11.6512C15.8418 11.4515 15.9951 11.3892 16.1765 11.3587C16.5008 11.3034 16.7933 11.399 17.0765 11.5392C17.2396 11.6198 17.2991 11.5682 17.3094 11.3943C17.3333 10.9912 17.2794 10.9092 16.8847 10.8018C16.8177 10.7836 16.7502 10.7662 16.6649 10.7437L16.6654 10.7442Z" fill="#99A3AC"/>
<path d="M4.87156 7.88665C4.84484 6.11056 6.29422 4.61572 8.06891 4.58947C9.86375 4.56322 11.3675 5.99478 11.3942 7.75494C11.4219 9.599 10.0006 11.0981 8.20062 11.1234C6.37719 11.1487 4.89875 9.7115 4.87109 7.88665H4.87156ZM8.47578 6.33275C8.50047 6.01619 8.45812 5.84931 8.34875 5.83212C8.12375 5.79603 8.10594 5.82181 7.99953 6.34587C7.93672 6.36275 7.86969 6.37962 7.80312 6.39884C7.43891 6.50384 7.21578 6.74759 7.18156 7.07619C7.14172 7.46478 7.295 7.74462 7.66344 7.92462C7.85188 8.01697 8.05109 8.08587 8.24234 8.17259C8.40172 8.24478 8.52266 8.35447 8.48656 8.55087C8.44859 8.75431 8.28969 8.84665 8.11062 8.82931C7.85281 8.80447 7.59453 8.74728 7.34609 8.67228C7.19703 8.62728 7.14641 8.65165 7.13328 8.80072C7.10797 9.08665 7.16516 9.17806 7.44219 9.26244C7.52891 9.28869 7.61703 9.31025 7.70797 9.33462C7.70187 9.4565 7.70656 9.55869 7.68922 9.65759C7.65828 9.83619 7.73281 9.89103 7.90391 9.89384C8.08531 9.89665 8.13641 9.80853 8.12844 9.65009C8.11812 9.4415 8.17203 9.28728 8.42234 9.27884C8.48938 9.2765 8.55687 9.24087 8.62063 9.21228C8.95016 9.06275 9.12687 8.80306 9.13719 8.44353C9.1475 8.08634 8.97406 7.83556 8.65062 7.68884C8.53016 7.63447 8.40594 7.58853 8.285 7.53415C8.165 7.48025 8.02672 7.44228 7.93484 7.3565C7.86172 7.28806 7.79891 7.14603 7.82 7.0579C7.84109 6.97025 7.96531 6.86337 8.05813 6.84744C8.21328 6.82072 8.38203 6.84743 8.54047 6.87556C8.66656 6.89806 8.78562 6.95619 8.90703 6.99837C9.05937 6.62244 9.00406 6.539 8.47531 6.33228L8.47578 6.33275Z" fill="#99A3AC"/>
<path d="M1.36547 15.6445C1.62 15.6445 1.84453 15.6445 2.06906 15.6445C2.86406 15.6445 3.65906 15.6449 4.45406 15.6421C4.59 15.6417 4.68797 15.6417 4.6875 15.8329C4.68187 18.2404 4.68375 20.6484 4.68281 23.0564C4.68281 23.0939 4.67484 23.1314 4.66875 23.1829H0.796875C0.986719 20.6699 1.17516 18.1678 1.36594 15.6445H1.36547Z" fill="#99A3AC"/>
<path d="M19.7143 3.89614C19.8413 3.79067 19.9196 3.71661 20.0063 3.6552C20.205 3.51457 20.4455 3.53895 20.5997 3.70817C20.7479 3.87082 20.769 4.14739 20.6091 4.30582C20.2604 4.65082 19.9013 4.98645 19.5314 5.30848C19.3599 5.45801 19.1475 5.44911 18.9741 5.29629C18.6174 4.98223 18.2658 4.66207 17.9222 4.33301C17.7493 4.16754 17.7521 3.88629 17.9025 3.71707C18.0614 3.53801 18.3104 3.51223 18.5143 3.65942C18.5958 3.71848 18.6689 3.78926 18.7861 3.88864C18.7922 3.77614 18.7997 3.69832 18.7997 3.62051C18.8007 2.64645 18.8002 1.67192 18.8002 0.697855C18.8002 0.627542 18.7969 0.55723 18.8035 0.487386C18.8288 0.225355 19.0177 0.0462924 19.2615 0.0491049C19.5047 0.0519174 19.6979 0.233324 19.7091 0.49723C19.7218 0.800511 19.7143 1.1052 19.7143 1.40895C19.7143 2.21895 19.7143 3.02848 19.7143 3.8952V3.89614Z" fill="#99A3AC"/>
<path d="M16.6484 5.64146C16.7815 5.52474 16.8532 5.45396 16.9329 5.39396C17.135 5.24209 17.3848 5.26412 17.5442 5.44224C17.704 5.62084 17.7125 5.88006 17.5353 6.05443C17.2025 6.38209 16.8607 6.70177 16.5115 7.01162C16.3114 7.18927 16.1014 7.18787 15.8993 7.01068C15.5482 6.70224 15.2042 6.38584 14.8685 6.06099C14.6867 5.88521 14.6895 5.6274 14.8475 5.44927C15.0143 5.26084 15.2651 5.24162 15.476 5.40427C15.5534 5.46427 15.6251 5.53177 15.7484 5.63818C15.7484 5.49615 15.7484 5.41506 15.7484 5.33396C15.7484 4.43818 15.747 3.54287 15.7493 2.64709C15.7503 2.40427 15.89 2.23224 16.1028 2.19193C16.3212 2.15021 16.5321 2.24349 16.6048 2.43709C16.6418 2.53552 16.6465 2.6499 16.647 2.75724C16.6503 3.61412 16.6489 4.47052 16.6489 5.3274C16.6489 5.4099 16.6489 5.4924 16.6489 5.64146H16.6484Z" fill="#99A3AC"/>
</g>
<defs>
<clipPath id="clip0_5857_42336">
<rect width="23.9531" height="24" fill="white" transform="translate(0.0234375)"/>
</clipPath>
</defs>
</svg>
