<svg width="98" height="40" viewBox="0 0 98 40" fill="none" xmlns="http://www.w3.org/2000/svg">
<g clip-path="url(#clip0_5821_42389)">
<path fill-rule="evenodd" clip-rule="evenodd" d="M20.1786 20.5308L20.3014 21.2625C20.3981 21.9432 20.4429 22.63 20.4355 23.3173C20.4346 24.8361 20.2488 26.3493 19.8818 27.8244C19.3856 29.8285 18.5212 31.726 17.3315 33.423C15.9568 35.372 13.969 37.289 11.0716 38.8293L10.7171 39.0177L10.3627 38.8293C7.46528 37.289 5.47834 35.372 4.10279 33.423C2.91312 31.726 2.04876 29.8285 1.55248 27.8244C1.18561 26.3496 0.999726 24.8367 0.998846 23.3181C0.991356 22.6308 1.0362 21.944 1.13299 21.2633L1.25575 20.5316C1.26622 20.472 1.26462 20.4108 1.25103 20.3518C1.23743 20.2927 1.21212 20.2369 1.17653 20.1875C1.14096 20.1382 1.09582 20.0962 1.04372 20.0641C0.991624 20.032 0.9336 20.0104 0.872991 20.0005C0.812383 19.9907 0.750392 19.9927 0.690583 20.0065C0.630774 20.0204 0.574338 20.0457 0.524522 20.0812C0.474706 20.1166 0.432497 20.1614 0.400327 20.213C0.368158 20.2646 0.346663 20.322 0.337083 20.3818L0.214324 21.1135C0.108734 21.8436 0.0595429 22.5806 0.0671752 23.3181C0.0677603 24.9115 0.262647 26.4989 0.647638 28.0464C1.1717 30.1597 2.08401 32.1604 3.3394 33.9495C4.79057 36.0084 6.89536 38.0327 9.92449 39.6395L10.5001 39.9448C10.5679 39.981 10.6437 39.9999 10.7208 39.9999C10.7979 39.9999 10.8738 39.981 10.9415 39.9448L11.5163 39.6395C14.5422 38.0319 16.6478 36.0084 18.1014 33.9495C19.3562 32.1605 20.2679 30.1601 20.7915 28.0472C21.1765 26.4997 21.3714 24.9123 21.372 23.319C21.3796 22.5814 21.3304 21.8444 21.2249 21.1143L21.1021 20.3826C21.0925 20.3228 21.071 20.2654 21.0389 20.2138C21.0067 20.1622 20.9645 20.1174 20.9147 20.082C20.8649 20.0465 20.8084 20.0212 20.7486 20.0073C20.6888 19.9935 20.6268 19.9915 20.5662 20.0013C20.5056 20.0112 20.4475 20.0328 20.3954 20.0649C20.3434 20.097 20.2982 20.139 20.2627 20.1883C20.2271 20.2377 20.2018 20.2935 20.1882 20.3526C20.1746 20.4116 20.173 20.4728 20.1835 20.5324L20.1786 20.5308Z" fill="#0A0B21"/>
<path fill-rule="evenodd" clip-rule="evenodd" d="M3.79917 20.0324L10.7178 17.9488L17.7909 20.0773C17.9093 20.1122 18.0369 20.0995 18.1459 20.0418C18.2547 19.9842 18.336 19.8864 18.3719 19.7698C18.4078 19.6532 18.3954 19.5274 18.3374 19.4198C18.2794 19.3122 18.1806 19.2317 18.0624 19.1958L10.8535 17.0264C10.7651 16.9997 10.6705 16.9997 10.582 17.0264L3.52682 19.1493C3.46785 19.1667 3.41296 19.1954 3.36527 19.2337C3.31759 19.272 3.27806 19.3193 3.24895 19.3727C3.21984 19.4262 3.20173 19.4848 3.19565 19.5451C3.18957 19.6055 3.19564 19.6664 3.21352 19.7245C3.2314 19.7825 3.26073 19.8365 3.29983 19.8833C3.33893 19.9302 3.38703 19.9689 3.44137 19.9974C3.49571 20.0259 3.55522 20.0435 3.61648 20.0492C3.67774 20.055 3.73955 20.0487 3.79836 20.0308L3.79917 20.0324Z" fill="#0A0B21"/>
<path fill-rule="evenodd" clip-rule="evenodd" d="M0.383786 20.6656L10.3027 39.7486C10.3414 39.8232 10.4001 39.8859 10.4724 39.9299C10.5447 39.974 10.6278 39.9977 10.7128 39.9984C10.7977 39.9992 10.8812 39.977 10.9543 39.9342C11.0274 39.8914 11.0872 39.8297 11.1272 39.7558L17.1761 28.6043L17.185 28.5867L21.0567 20.6527C21.1092 20.5433 21.1157 20.4178 21.0748 20.3036C21.034 20.1894 20.949 20.0957 20.8384 20.0429C20.7279 19.9901 20.6007 19.9825 20.4844 20.0216C20.3682 20.0608 20.2723 20.1436 20.2177 20.252L16.3525 28.1795L10.7312 38.5497L1.21226 20.2456C1.18483 20.1913 1.14673 20.1428 1.10016 20.1031C1.0536 20.0634 0.999503 20.0332 0.941001 20.0142C0.882504 19.9952 0.82077 19.9879 0.759368 19.9926C0.697972 19.9973 0.638134 20.014 0.583324 20.0417C0.528512 20.0693 0.479818 20.1075 0.440061 20.1538C0.400305 20.2002 0.370278 20.2539 0.351718 20.3117C0.333159 20.3696 0.326437 20.4306 0.331941 20.491C0.337446 20.5515 0.355068 20.6103 0.383786 20.664V20.6656Z" fill="#0A0B21"/>
<path fill-rule="evenodd" clip-rule="evenodd" d="M5.13146 29.1639H16.1616C16.285 29.1639 16.4034 29.1156 16.4907 29.0295C16.578 28.9435 16.627 28.8269 16.627 28.7051C16.627 28.5835 16.578 28.4668 16.4907 28.3807C16.4034 28.2947 16.285 28.2463 16.1616 28.2463H5.13146C5.00802 28.2463 4.88963 28.2947 4.80234 28.3807C4.71506 28.4668 4.66602 28.5835 4.66602 28.7051C4.66602 28.8269 4.71506 28.9435 4.80234 29.0295C4.88963 29.1156 5.00802 29.1639 5.13146 29.1639ZM35.8973 25.205H28.7217C28.5977 25.2057 28.4789 25.2546 28.3913 25.341C28.3036 25.4274 28.2541 25.5444 28.2534 25.6667V31.3437C28.2542 31.4659 28.3039 31.5828 28.3915 31.6692C28.4791 31.7556 28.5978 31.8045 28.7217 31.8054H35.8973V32.767H28.7217C28.5324 32.7679 28.3448 32.7317 28.1697 32.6607C27.9946 32.5897 27.8355 32.4852 27.7017 32.3532C27.5678 32.2213 27.4618 32.0645 27.3897 31.8919C27.3176 31.7193 27.281 31.5344 27.2819 31.3478V25.6707C27.281 25.484 27.3176 25.2991 27.3897 25.1266C27.4618 24.9539 27.5678 24.7971 27.7017 24.6652C27.8355 24.5332 27.9946 24.4287 28.1697 24.3577C28.3448 24.2867 28.5324 24.2505 28.7217 24.2514H35.8973V25.205ZM49.3713 24.2466V25.2083H42.4607V28.0188H48.0152V28.9884H42.4599V31.8037H49.3705V32.7654H41.4843V24.2466H49.3713Z" fill="#0A0B21"/>
<path d="M63.6013 25.6781V28.1736C63.6025 28.3602 63.5657 28.5451 63.4934 28.7176C63.4211 28.8901 63.3155 29.0469 63.1813 29.1788C63.0477 29.3108 62.8885 29.4153 62.7135 29.4864C62.5385 29.5574 62.3506 29.5937 62.1616 29.5929H60.8421L63.5535 32.7624H62.2696L59.5699 29.5929H56.399C56.2422 29.585 56.0859 29.5693 55.9307 29.5456V32.7624H54.9551V24.2588H62.1541C62.3436 24.2581 62.5309 24.2943 62.7059 24.3653C62.8815 24.4364 63.0401 24.5409 63.1743 24.6729C63.3079 24.8048 63.4141 24.9616 63.4858 25.1341C63.5581 25.3066 63.5949 25.4915 63.5943 25.6781H63.6013ZM56.4023 28.6232H62.1616C62.2217 28.624 62.2812 28.6129 62.3372 28.5905C62.3926 28.5682 62.4434 28.5351 62.486 28.4932C62.5286 28.4513 62.5618 28.4014 62.5846 28.3466C62.6073 28.2917 62.6184 28.2329 62.6178 28.1736V25.6781C62.6184 25.618 62.6073 25.5582 62.5851 25.5024C62.5624 25.4466 62.5286 25.3957 62.486 25.3527C62.4446 25.3088 62.3944 25.2738 62.3384 25.2504C62.2824 25.2269 62.2217 25.2154 62.1611 25.2165H56.4015C56.2774 25.2171 56.1587 25.266 56.071 25.3524C55.9833 25.4388 55.9338 25.5559 55.9332 25.6781V28.1736C55.9319 28.2337 55.9435 28.2932 55.9674 28.3485C55.9912 28.4037 56.0267 28.4534 56.0713 28.4942C56.115 28.5363 56.1668 28.5694 56.2236 28.5915C56.2804 28.6137 56.3411 28.6245 56.4023 28.6232Z" fill="#0A0B21"/>
<path fill-rule="evenodd" clip-rule="evenodd" d="M68.7617 24.2466H77.3974V25.2083H73.5766V32.7662H72.6006V25.2083H68.7617V24.2466ZM82.6316 32.7622V24.2466H83.6075V32.7622H82.6316ZM96.5739 24.2466H97.8222L94.2108 28.5044L97.8339 32.7622H96.5739L93.3585 28.9892H90.5749V32.7622H89.5926V24.2466H90.5766V28.0188H93.3603L96.5739 24.2466Z" fill="#0A0B21"/>
</g>
<path d="M26.2739 13H27.2783L27.9712 11.0986H31.457L32.1606 13H33.1597L30.1895 5.19043H29.2334L26.2739 13ZM28.2773 10.2607L29.6953 6.34521H29.7168L31.1616 10.2607H28.2773ZM36.0225 13.0645C36.377 13.0645 36.71 12.9785 37.0215 12.8066C37.333 12.6348 37.5908 12.3931 37.7949 12.0762H37.8057V13H38.6973V7.64502H37.8057V10.2393C37.8057 10.8569 37.6499 11.3457 37.3438 11.7109C37.0322 12.0762 36.6562 12.2534 36.2104 12.2534C35.77 12.2534 35.4424 12.1245 35.2275 11.8613C35.0073 11.5981 34.8999 11.1685 34.8999 10.5776V7.64502H34.0083V10.8354C34.0083 11.582 34.1855 12.1406 34.54 12.5112C34.8945 12.8818 35.3887 13.0645 36.0225 13.0645ZM42.5859 13.0645C43.0103 13.0645 43.3916 12.9731 43.7246 12.7905C44.0576 12.6079 44.3208 12.3447 44.5195 12.0117H44.5303V13H45.3896V4.90576H44.498V8.60107H44.4873C44.2832 8.27881 44.0146 8.02637 43.6816 7.84375C43.3486 7.6665 42.9834 7.5752 42.5752 7.5752C41.8232 7.5752 41.1948 7.84375 40.7007 8.37012C40.2012 8.90186 39.9541 9.5625 39.9541 10.3574C39.9541 11.1631 40.2012 11.813 40.7061 12.3125C41.2056 12.8174 41.834 13.0645 42.5859 13.0645ZM42.7041 12.2534C42.1616 12.2534 41.7212 12.0762 41.3774 11.7163C41.0337 11.3564 40.8672 10.9053 40.8672 10.3574C40.8672 9.77734 41.0444 9.30469 41.3989 8.93945C41.7534 8.57422 42.1885 8.3916 42.7148 8.3916C43.2466 8.3916 43.6816 8.57959 44.02 8.95557C44.3584 9.33154 44.5303 9.79883 44.5303 10.3574C44.5303 10.916 44.353 11.3726 44.0039 11.7271C43.6494 12.0815 43.2197 12.2534 42.7041 12.2534ZM47.5703 6.66211C47.7529 6.66211 47.9033 6.60303 48.0322 6.47949C48.1558 6.36133 48.2202 6.21094 48.2202 6.02832C48.2202 5.85107 48.1558 5.70068 48.0322 5.57715C47.9033 5.45361 47.7529 5.38916 47.5703 5.38916C47.3877 5.38916 47.2319 5.45361 47.1084 5.57715C46.9795 5.70068 46.9204 5.85107 46.9204 6.02832C46.9204 6.21094 46.9795 6.36133 47.1084 6.47949C47.2319 6.60303 47.3877 6.66211 47.5703 6.66211ZM47.1191 13H48.0107V7.64502H47.1191V13ZM51.2549 13.0645C51.7544 13.0645 52.1895 12.957 52.5547 12.7368L52.3237 11.9526C51.9854 12.1406 51.6792 12.2319 51.4106 12.2319C51.1636 12.2319 50.9971 12.1567 50.9004 12.0063C50.8037 11.856 50.7607 11.6089 50.7607 11.2705V8.41309H52.5332V7.64502H50.7607V5.7168L49.8691 5.81885V7.64502H49.1763V8.41309H49.8691V11.4048C49.8691 12.5112 50.3311 13.0645 51.2549 13.0645ZM58.2266 10.2285C58.2266 9.46045 57.9956 8.82666 57.5391 8.32715C57.0825 7.82764 56.4917 7.5752 55.7666 7.5752C54.9932 7.5752 54.3594 7.83301 53.8652 8.34863C53.3711 8.86426 53.124 9.51953 53.124 10.3252C53.124 11.1416 53.3765 11.8022 53.8813 12.3071C54.3862 12.812 55.0361 13.0645 55.8311 13.0645C56.7871 13.0645 57.5283 12.7314 58.0439 12.0654L57.4155 11.5391C57.0288 12.0171 56.5132 12.2534 55.8633 12.2534C55.3584 12.2534 54.9448 12.103 54.6118 11.8022C54.2788 11.5015 54.0854 11.0933 54.0264 10.5884H58.2051C58.2051 10.5776 58.2051 10.5239 58.2158 10.438C58.2212 10.3521 58.2266 10.2822 58.2266 10.2285ZM55.7559 8.3916C56.1855 8.3916 56.54 8.52588 56.8193 8.79443C57.0986 9.06299 57.2705 9.41748 57.3403 9.86328H54.0479C54.1284 9.41211 54.3271 9.05762 54.6387 8.78906C54.9502 8.52588 55.3208 8.3916 55.7559 8.3916ZM61.8145 13.0645C62.2388 13.0645 62.6201 12.9731 62.9531 12.7905C63.2861 12.6079 63.5493 12.3447 63.748 12.0117H63.7588V13H64.6182V4.90576H63.7266V8.60107H63.7158C63.5117 8.27881 63.2432 8.02637 62.9102 7.84375C62.5771 7.6665 62.2119 7.5752 61.8037 7.5752C61.0518 7.5752 60.4233 7.84375 59.9292 8.37012C59.4297 8.90186 59.1826 9.5625 59.1826 10.3574C59.1826 11.1631 59.4297 11.813 59.9346 12.3125C60.4341 12.8174 61.0625 13.0645 61.8145 13.0645ZM61.9326 12.2534C61.3901 12.2534 60.9497 12.0762 60.606 11.7163C60.2622 11.3564 60.0957 10.9053 60.0957 10.3574C60.0957 9.77734 60.2729 9.30469 60.6274 8.93945C60.9819 8.57422 61.417 8.3916 61.9434 8.3916C62.4751 8.3916 62.9102 8.57959 63.2485 8.95557C63.5869 9.33154 63.7588 9.79883 63.7588 10.3574C63.7588 10.916 63.5815 11.3726 63.2324 11.7271C62.8779 12.0815 62.4482 12.2534 61.9326 12.2534ZM72.084 13.0645C72.8306 13.0645 73.4536 12.8174 73.9478 12.3125C74.4419 11.813 74.689 11.1631 74.689 10.3574C74.689 9.5625 74.4419 8.89648 73.9531 8.37012C73.459 7.84375 72.8359 7.5752 72.084 7.5752C71.6758 7.5752 71.3052 7.6665 70.9775 7.83838C70.6499 8.01025 70.3867 8.25732 70.1826 8.57959H70.1719V4.90576H69.2803V13H70.1235V12.0332H70.145C70.3491 12.3608 70.6123 12.6133 70.9453 12.7959C71.2729 12.9785 71.6543 13.0645 72.084 13.0645ZM71.9604 12.2534C71.4395 12.2534 71.0044 12.0815 70.6499 11.7271C70.2954 11.3726 70.1235 10.916 70.1235 10.3574C70.1235 9.79883 70.29 9.33154 70.6338 8.95557C70.9722 8.57959 71.4126 8.3916 71.9497 8.3916C72.4653 8.3916 72.9004 8.57422 73.2549 8.93945C73.6094 9.30469 73.7866 9.77734 73.7866 10.3574C73.7866 10.9053 73.6147 11.3564 73.271 11.7163C72.9272 12.0762 72.4922 12.2534 71.9604 12.2534ZM76.4292 15.1807H77.353L80.3877 7.64502H79.4531L77.8364 11.7109H77.8149L76.0747 7.64502H75.1079L77.3853 12.7905L76.4292 15.1807Z" fill="#0A0B21"/>
<defs>
<clipPath id="clip0_5821_42389">
<rect width="98" height="23" fill="white" transform="translate(0 17)"/>
</clipPath>
</defs>
</svg>
