<svg width="32" height="32" viewBox="0 0 32 32" fill="none" xmlns="http://www.w3.org/2000/svg">
<path fill-rule="evenodd" clip-rule="evenodd" d="M15.9993 29.3333C8.63935 29.3333 2.66602 23.3466 2.66602 16C2.66602 8.63996 8.63935 2.66663 15.9993 2.66663C23.346 2.66663 29.3327 8.63996 29.3327 16C29.3327 23.3466 23.346 29.3333 15.9993 29.3333ZM15.9995 8.46612C16.5093 8.46612 16.9226 8.87765 16.9226 9.3853V10.1373H17.0248C18.7415 10.1373 19.9992 11.6234 19.9992 13.2848C19.9992 13.7925 19.5859 14.204 19.0761 14.204C18.5663 14.204 18.153 13.7925 18.153 13.2848C18.153 12.4849 17.574 11.9757 17.0248 11.9757H16.9226V14.8694L18.1689 15.3207C19.3015 15.7308 19.9992 16.8461 19.9992 18.0273C19.9992 19.5309 18.8593 20.889 17.288 20.889H16.9226V21.6411C16.9226 22.1487 16.5093 22.5603 15.9995 22.5603C15.4897 22.5603 15.0764 22.1487 15.0764 21.6411V20.889H14.9735C13.2569 20.889 11.9992 19.4029 11.9992 17.7415C11.9992 17.2338 12.4125 16.8223 12.9223 16.8223C13.4321 16.8223 13.8453 17.2338 13.8453 17.7415C13.8453 18.5414 14.4244 19.0506 14.9735 19.0506H15.0764V16.1571L13.8295 15.7056C12.6969 15.2955 11.9992 14.1801 11.9992 12.9989C11.9992 11.4954 13.1391 10.1373 14.7104 10.1373H15.0764V9.3853C15.0764 8.87765 15.4897 8.46612 15.9995 8.46612ZM15.0764 11.9757H14.7103C14.3066 11.9757 13.8453 12.3569 13.8453 12.999C13.8453 13.49 14.1326 13.8592 14.4603 13.9779L15.0764 14.201V11.9757ZM16.9226 16.8255L17.538 17.0484C17.8658 17.1671 18.1531 17.5363 18.1531 18.0273C18.1531 18.6694 17.6918 19.0506 17.288 19.0506H16.9226V16.8255Z" fill="white"/>
</svg>
