<svg width="82" height="8" viewBox="0 0 82 8" fill="none" xmlns="http://www.w3.org/2000/svg">
<path d="M0 8V0H2.81619C3.56715 0 4.22424 0.202534 4.7875 0.708864C5.35072 1.21518 5.53846 1.8228 5.53846 2.53166C5.53846 3.34179 5.25685 3.94937 4.7875 4.35445C4.31811 4.75949 3.56715 5.16458 2.72228 5.16458H1.40809V8H0ZM1.50196 3.74683H2.72228C3.0978 3.74683 3.37941 3.64555 3.56715 3.44306C3.75489 3.24051 3.84876 2.9367 3.84876 2.63293C3.84876 2.32912 3.75489 2.0253 3.56715 1.8228C3.37941 1.51899 3.0978 1.41772 2.72228 1.41772H1.40809V3.74683H1.50196Z" fill="#0A0B21"/>
<path d="M8.61523 4C8.61523 2.92682 8.9956 1.95124 9.75634 1.17075C10.5171 0.390244 11.4681 0 12.6092 0C13.6553 0 14.6062 0.390244 15.4621 1.17075C16.2228 1.95124 16.6983 2.92682 16.6032 4C16.6032 5.07319 16.2228 6.04881 15.4621 6.82929C14.7013 7.60978 13.7504 8 12.6092 8C11.5631 8 10.6122 7.60978 9.75634 6.82929C8.90051 6.04881 8.61523 5.07319 8.61523 4ZM15.0817 4C15.0817 3.21951 14.8915 2.63416 14.416 2.14633C13.9405 1.65854 13.3699 1.46341 12.6092 1.46341C11.9436 1.46341 11.373 1.65854 10.8975 2.14633C10.422 2.63416 10.2318 3.21951 10.2318 4C10.2318 4.78049 10.422 5.36584 10.8975 5.85367C11.373 6.34146 11.9436 6.53659 12.6092 6.53659C13.2749 6.53659 13.8455 6.34146 14.3209 5.85367C14.7964 5.26832 15.0817 4.68292 15.0817 4Z" fill="#0A0B21"/>
<path d="M20.3086 7.89999V0H21.8531V6.50001H25.2317V8H20.3086V7.89999Z" fill="#0A0B21"/>
<path d="M33.8474 0L31.2364 4.86077V8H29.6891V4.86077L27.0781 0H28.8186L30.5595 3.13924L32.2034 0H33.8474Z" fill="#0A0B21"/>
<path d="M39.29 7.80928V0.683351H36.4824V0.0976562H42.6785V0.683351H39.8709V7.9069H39.29V7.80928Z" fill="#797981"/>
<path d="M52.2636 7.80928H51.5859L48.9722 4.39277H47.036V7.9069H46.4551V0.0976562H49.0689C49.7469 0.0976562 50.3274 0.292889 50.715 0.683351C51.1021 1.07383 51.3926 1.56189 51.3926 2.24519C51.3926 2.83088 51.1988 3.22136 50.9083 3.6118C50.6179 4.00228 50.134 4.19753 49.6498 4.29515L52.2636 7.80928ZM47.036 0.683351V3.80704H48.9722C49.5531 3.80704 49.9403 3.70942 50.2307 3.4166C50.5212 3.12374 50.715 2.7333 50.715 2.24519C50.715 1.75713 50.5212 1.36665 50.2307 1.07383C49.9403 0.780968 49.5531 0.683351 48.9722 0.683351H47.036Z" fill="#797981"/>
<path d="M61.3636 7.80924L60.5893 5.95457H56.5232L55.7489 7.80924H55.168L58.4594 0H58.7498L62.0416 7.80924H61.3636ZM58.6531 1.07379L56.9103 5.46647H60.4926L58.6531 1.07379Z" fill="#797981"/>
<path d="M65.9121 7.80928V0.0976562H68.0421C69.3006 0.0976562 70.3654 0.488118 71.1397 1.17141C71.9144 1.85475 72.3015 2.83088 72.3015 3.90466C72.3015 5.07607 71.9144 5.95462 71.1397 6.73554C70.3654 7.51646 69.3973 7.80928 68.0421 7.80928H65.9121ZM66.5897 7.32122H68.1387C69.2035 7.32122 70.0749 7.02836 70.7525 6.34506C71.4301 5.75937 71.7206 4.88083 71.7206 4.00228C71.7206 3.02612 71.4301 2.24519 70.7525 1.65951C70.0749 1.07383 69.3006 0.780968 68.1387 0.780968H66.5897V7.32122Z" fill="#797981"/>
<path d="M76.3672 7.80928V0.0976562H81.208V0.683351H77.0448V3.4166H80.3366V4.00228H77.0448V7.32122H81.4014V7.9069H76.3672V7.80928Z" fill="#797981"/>
</svg>
