<svg width="26" height="26" viewBox="0 0 26 26" fill="none" xmlns="http://www.w3.org/2000/svg">
<path fill-rule="evenodd" clip-rule="evenodd" d="M12.9993 23.8334C7.01935 23.8334 2.16602 18.9909 2.16602 13.0001C2.16602 7.02008 7.01935 2.16675 12.9993 2.16675C18.9902 2.16675 23.8327 7.02008 23.8327 13.0001C23.8327 18.9909 18.9902 23.8334 12.9993 23.8334ZM16.4552 17.0192C16.5852 17.0951 16.726 17.1384 16.8777 17.1384C17.1485 17.1384 17.4193 16.9976 17.571 16.7376C17.7985 16.3584 17.6793 15.8601 17.2893 15.6217L13.4327 13.3251V8.32008C13.4327 7.86508 13.0643 7.50758 12.6202 7.50758C12.176 7.50758 11.8077 7.86508 11.8077 8.32008V13.7909C11.8077 14.0726 11.9593 14.3326 12.2085 14.4842L16.4552 17.0192Z" fill="#99A3AC"/>
</svg>
