<svg width="22" height="22" viewBox="0 0 22 22" fill="none" xmlns="http://www.w3.org/2000/svg">
<path d="M7.89666 20.5045V17.192C7.89666 16.3464 8.58717 15.6609 9.43896 15.6609H12.5526C12.9617 15.6609 13.354 15.8222 13.6432 16.1094C13.9324 16.3965 14.0949 16.7859 14.0949 17.192V20.5045C14.0924 20.8561 14.2312 21.1941 14.4807 21.4436C14.7302 21.6931 15.0697 21.8334 15.4238 21.8334H17.5481C18.5403 21.836 19.4926 21.4465 20.1951 20.751C20.8975 20.0554 21.2923 19.111 21.2923 18.1261V8.68918C21.2923 7.89358 20.9371 7.13891 20.3223 6.62847L13.0958 0.898939C11.8388 -0.105643 10.0377 -0.073208 8.81816 0.975975L1.75658 6.62847C1.11279 7.12386 0.727999 7.88077 0.708984 8.68918V18.1164C0.708984 20.1693 2.38531 21.8334 4.45317 21.8334H6.52896C7.26448 21.8334 7.86223 21.2443 7.86756 20.5142L7.89666 20.5045Z" fill="#0A0B21"/>
</svg>
