<svg width="24" height="28" viewBox="0 0 24 28" fill="none" xmlns="http://www.w3.org/2000/svg">
<path fill-rule="evenodd" clip-rule="evenodd" d="M19.363 7.8613V9.90575C21.6594 10.6226 23.3327 12.7015 23.3327 15.1845V21.767C23.3327 24.841 20.7842 27.3333 17.6423 27.3333H6.35775C3.21449 27.3333 0.666016 24.841 0.666016 21.767V15.1845C0.666016 12.7015 2.34061 10.6226 4.63573 9.90575V7.8613C4.64928 3.88634 7.94157 0.666626 11.979 0.666626C16.0707 0.666626 19.363 3.88634 19.363 7.8613ZM12.0061 2.98535C14.7565 2.98535 16.992 5.17158 16.992 7.8613V9.61823H7.00672V7.8348C7.02027 5.15833 9.25577 2.98535 12.0061 2.98535ZM13.1848 19.9399C13.1848 20.5891 12.6565 21.1059 11.9926 21.1059C11.3422 21.1059 10.8139 20.5891 10.8139 19.9399V16.9984C10.8139 16.3624 11.3422 15.8457 11.9926 15.8457C12.6565 15.8457 13.1848 16.3624 13.1848 16.9984V19.9399Z" fill="white"/>
</svg>
