<svg width="24" height="24" viewBox="0 0 24 24" fill="none" xmlns="http://www.w3.org/2000/svg">
<path d="M12.2501 10.696L17.7461 13.9079C18.0459 14.1086 18.4456 13.9079 18.4456 13.5064V8.98972C18.4456 8.78897 18.3457 8.6886 18.1458 8.58823L12.1502 5.07528C12.0503 4.97491 11.8504 4.97491 11.7505 5.07528L5.75486 8.58823C5.55501 8.58823 5.45508 8.78897 5.45508 8.98972V10.5956L11.7505 6.98231C11.9503 6.88194 12.0503 6.88194 12.2501 6.98231L16.6469 9.49157C16.8468 9.59194 16.9467 9.79268 16.9467 9.89305V11.499L12.2501 8.78897C12.0503 8.6886 11.9503 8.6886 11.7505 8.78897L5.75486 12.3019C5.55501 12.4023 5.45508 12.603 5.45508 12.7034V15.9153C5.45508 16.116 5.55501 16.2164 5.65493 16.3167L7.05391 17.1197V13.7071C7.05391 13.5064 7.15384 13.406 7.35369 13.3056L11.7505 10.7964C11.8504 10.5956 12.0503 10.5956 12.2501 10.696Z" fill="#0A0B21"/>
<path d="M12.2494 17.9227C12.0495 18.023 11.9496 18.023 11.7498 17.9227L8.75195 16.2164V17.8223C8.75195 18.023 8.85188 18.1234 8.95181 18.2238L11.7498 19.8297C11.9496 19.9301 12.0495 19.9301 12.2494 19.8297L18.5448 16.2164L17.1458 15.4134C16.946 15.313 16.846 15.313 16.6462 15.4134L12.2494 17.9227Z" fill="#0A0B21"/>
<path d="M12.2499 16.1158L14.848 14.6103C15.0479 14.5099 15.0479 14.3092 14.848 14.2088L12.2499 12.6029C12.05 12.5025 11.9501 12.5025 11.7503 12.6029L9.05223 14.1084C8.85238 14.2088 8.85238 14.4095 9.05223 14.5099L11.6503 16.0155C11.8502 16.2162 12.05 16.2162 12.2499 16.1158Z" fill="#0A0B21"/>
</svg>
