<svg width="64" height="64" viewBox="0 0 64 64" fill="none" xmlns="http://www.w3.org/2000/svg">
<path d="M32.75 27.2307L47.8507 36.0896C48.6743 36.6433 49.7725 36.0896 49.7725 34.9823V22.5245C49.7725 21.9708 49.498 21.6939 48.9489 21.4171L32.4755 11.7277C32.2009 11.4508 31.6518 11.4508 31.3773 11.7277L14.9038 21.4171C14.3546 21.4171 14.0801 21.9708 14.0801 22.5245V26.9539L31.3773 16.9876C31.9264 16.7108 32.2009 16.7108 32.75 16.9876L44.8305 23.9087C45.3796 24.1855 45.6541 24.7391 45.6541 25.016V29.4454L32.75 21.9708C32.2009 21.6939 31.9264 21.6939 31.3773 21.9708L14.9038 31.6602C14.3546 31.937 14.0801 32.4907 14.0801 32.7676V41.6265C14.0801 42.1802 14.3546 42.457 14.6292 42.7339L18.473 44.9486V35.536C18.473 34.9823 18.7476 34.7055 19.2967 34.4286L31.3773 27.5076C31.6518 26.9539 32.2009 26.9539 32.75 27.2307Z" fill="#768CFA"/>
<path d="M32.7501 47.1633C32.201 47.4401 31.9265 47.4401 31.3774 47.1633L23.1406 42.457V46.8865C23.1406 47.4402 23.4152 47.7169 23.6897 47.9938L31.3774 52.4232C31.9265 52.7001 32.201 52.7001 32.7501 52.4232L50.0473 42.457L46.2035 40.2423C45.6544 39.9655 45.3798 39.9655 44.8307 40.2423L32.7501 47.1633Z" fill="#768CFA"/>
<path d="M32.7485 42.1802L39.8869 38.0276C40.436 37.7508 40.436 37.1971 39.8869 36.9203L32.7485 32.4908C32.1993 32.214 31.9247 32.214 31.3756 32.4908L23.9626 36.6435C23.4135 36.9203 23.4135 37.4739 23.9626 37.7508L31.1011 41.9034C31.6502 42.4571 32.1993 42.4571 32.7485 42.1802Z" fill="#768CFA"/>
</svg>
