<svg width="32" height="32" viewBox="0 0 32 32" fill="none" xmlns="http://www.w3.org/2000/svg">
<path d="M25.7872 19.32L24.4539 17.1067C24.1739 16.6134 23.9206 15.68 23.9206 15.1334V11.76C23.9206 7.41337 20.3872 3.8667 16.0272 3.8667C11.6672 3.8667 8.13391 7.41337 8.13391 11.76V15.1334C8.13391 15.68 7.88057 16.6134 7.60057 17.0934L6.25391 19.32C5.72057 20.2134 5.60057 21.2 5.93391 22.1067C6.25391 23 7.01391 23.6934 8.00058 24.0267C10.5872 24.9067 13.3072 25.3334 16.0272 25.3334C18.7472 25.3334 21.4672 24.9067 24.0539 24.04C24.9872 23.7334 25.7072 23.0267 26.0539 22.1067C26.4006 21.1867 26.3072 20.1734 25.7872 19.32Z" fill="#99A3AC"/>
<path d="M18.9997 4.42675C18.0797 4.06675 17.0797 3.86675 16.0264 3.86675C14.9864 3.86675 13.9864 4.05341 13.0664 4.42675C13.6397 3.34675 14.7731 2.66675 16.0264 2.66675C17.2931 2.66675 18.4131 3.34675 18.9997 4.42675Z" fill="#99A3AC"/>
<path d="M19.7736 26.6801C19.2136 28.2267 17.7336 29.3334 16.0002 29.3334C14.9469 29.3334 13.9069 28.9067 13.1736 28.1467C12.7469 27.7467 12.4269 27.2134 12.2402 26.6667C12.4136 26.6934 12.5869 26.7067 12.7736 26.7334C13.0802 26.7734 13.4002 26.8134 13.7202 26.8401C14.4802 26.9067 15.2536 26.9467 16.0269 26.9467C16.7869 26.9467 17.5469 26.9067 18.2936 26.8401C18.5736 26.8134 18.8536 26.8001 19.1202 26.7601C19.3336 26.7334 19.5469 26.7067 19.7736 26.6801Z" fill="#99A3AC"/>
<path d="M23 11.8C25.0987 11.8 26.8 10.0987 26.8 8C26.8 5.90132 25.0987 4.2 23 4.2C20.9013 4.2 19.2 5.90132 19.2 8C19.2 10.0987 20.9013 11.8 23 11.8Z" fill="#768CFA" stroke="white" stroke-width="1.6"/>
</svg>
