<svg width="32" height="32" viewBox="0 0 32 32" fill="none" xmlns="http://www.w3.org/2000/svg">
<path fill-rule="evenodd" clip-rule="evenodd" d="M15.6368 29.2182C15.7845 29.2953 15.9496 29.3345 16.1147 29.3332C16.2798 29.3319 16.4435 29.2914 16.5925 29.2129L21.3497 26.6699C22.6987 25.9508 23.7551 25.1467 24.5793 24.2106C26.3713 22.1709 27.3499 19.5677 27.3324 16.8835L27.276 8.02927C27.2707 7.00944 26.6009 6.09944 25.6102 5.76865L16.7603 2.79938C16.2274 2.61895 15.6435 2.62287 15.12 2.80853L6.30368 5.88371C5.31841 6.22757 4.66068 7.14411 4.66605 8.16525L4.72243 17.0129C4.73988 19.7011 5.75198 22.2925 7.57351 24.3112C8.40575 25.2343 9.47154 26.0266 10.8353 26.734L15.6368 29.2182ZM14.3775 18.8119C14.5761 19.0028 14.8338 19.0969 15.0916 19.0943C15.3493 19.093 15.6057 18.9962 15.8017 18.8027L21.0004 13.6774C21.3911 13.2917 21.387 12.672 20.9924 12.2915C20.5964 11.911 19.9588 11.9136 19.5682 12.2993L15.0768 16.7264L13.2378 14.9587C12.8418 14.5783 12.2056 14.5822 11.8136 14.9679C11.423 15.3536 11.427 15.9733 11.823 16.3538L14.3775 18.8119Z" fill="white"/>
</svg>
