<svg width="32" height="32" viewBox="0 0 32 32" fill="none" xmlns="http://www.w3.org/2000/svg">
<path fill-rule="evenodd" clip-rule="evenodd" d="M22.9061 5.87996C22.9061 4.10663 24.3461 2.66663 26.1195 2.66663C27.8928 2.66663 29.3328 4.10663 29.3328 5.87996C29.3328 7.65329 27.8928 9.09329 26.1195 9.09329C24.3461 9.09329 22.9061 7.65329 22.9061 5.87996ZM17.7727 19.679L21.626 14.707L21.5727 14.7337C21.786 14.4404 21.826 14.067 21.6793 13.7337C21.534 13.4004 21.2127 13.1737 20.8673 13.147C20.506 13.107 20.1474 13.267 19.9327 13.5604L16.7073 17.7337L13.0127 14.827C12.786 14.6537 12.5193 14.5857 12.2527 14.6137C11.9873 14.6537 11.7473 14.799 11.586 15.0124L7.64068 20.147L7.55935 20.267C7.33268 20.6924 7.43935 21.239 7.83935 21.5337C8.02602 21.6537 8.22602 21.7337 8.45268 21.7337C8.76068 21.747 9.05268 21.5857 9.23935 21.3337L12.586 17.0257L16.386 19.8804L16.506 19.959C16.9327 20.1857 17.466 20.0804 17.7727 19.679ZM20.5993 5.04036C20.546 5.37369 20.5194 5.70703 20.5194 6.04036C20.5194 9.04036 22.946 11.4657 25.9327 11.4657C26.266 11.4657 26.586 11.427 26.9193 11.3737V22.1324C26.9193 26.6537 24.2527 29.3337 19.7193 29.3337H9.86735C5.33268 29.3337 2.66602 26.6537 2.66602 22.1324V12.267C2.66602 7.73369 5.33268 5.04036 9.86735 5.04036H20.5993Z" fill="white"/>
</svg>
