<svg width="32" height="32" viewBox="0 0 32 32" fill="none" xmlns="http://www.w3.org/2000/svg">
<path fill-rule="evenodd" clip-rule="evenodd" d="M2.66602 16.0001C2.66602 8.64008 8.62602 2.66675 15.9993 2.66675C23.3594 2.66675 29.3327 8.64008 29.3327 16.0001C29.3327 23.3734 23.3594 29.3334 15.9993 29.3334C8.62602 29.3334 2.66602 23.3734 2.66602 16.0001ZM18.9727 18.4401L21.1327 11.6134C21.2793 11.1467 20.8527 10.7067 20.386 10.8534L13.5593 12.9867C13.2793 13.0801 13.0527 13.2934 12.9727 13.5734L10.8393 20.4134C10.6927 20.8667 11.1327 21.3067 11.586 21.1601L18.386 19.0267C18.666 18.9467 18.8927 18.7201 18.9727 18.4401Z" fill="white"/>
</svg>
