<svg width="72" height="72" viewBox="0 0 72 72" fill="none" xmlns="http://www.w3.org/2000/svg">
<path fill-rule="evenodd" clip-rule="evenodd" d="M36 66C19.44 66 6 52.53 6 36C6 19.44 19.44 6 36 6C52.53 6 66 19.44 66 36C66 52.53 52.53 66 36 66ZM36.0004 19.0489C37.1474 19.0489 38.0773 19.9748 38.0773 21.117V22.809H38.3073C42.1698 22.809 44.9996 26.1528 44.9996 29.8909C44.9996 31.0331 44.0698 31.9591 42.9227 31.9591C41.7757 31.9591 40.8458 31.0331 40.8458 29.8909C40.8458 28.0911 39.5429 26.9454 38.3073 26.9454H38.0773V33.4563L40.8815 34.4717C43.4297 35.3945 44.9996 37.9039 44.9996 40.5616C44.9996 43.9445 42.4349 47.0003 38.8994 47.0003H38.0773V48.6925C38.0773 49.8348 37.1474 50.7607 36.0004 50.7607C34.8533 50.7607 33.9235 49.8348 33.9235 48.6925V47.0003H33.6919C29.8295 47.0003 26.9996 43.6565 26.9996 39.9184C26.9996 38.7762 27.9295 37.8502 29.0766 37.8502C30.2236 37.8502 31.1535 38.7762 31.1535 39.9184C31.1535 41.7183 32.4564 42.864 33.6919 42.864H33.9235V36.3535L31.1178 35.3376C28.5695 34.4149 26.9996 31.9054 26.9996 29.2477C26.9996 25.8648 29.5644 22.809 33.0998 22.809H33.9235V21.117C33.9235 19.9748 34.8533 19.0489 36.0004 19.0489ZM33.9234 26.9454H33.0997C32.1912 26.9454 31.1534 27.8032 31.1534 29.2478C31.1534 30.3525 31.7997 31.1833 32.5372 31.4504L33.9234 31.9523V26.9454ZM38.0773 37.8576L39.462 38.3589C40.1995 38.626 40.8458 39.4568 40.8458 40.5615C40.8458 42.0062 39.808 42.8639 38.8995 42.8639H38.0773V37.8576Z" fill="#0A0B21"/>
</svg>
