<svg width="26" height="26" viewBox="0 0 26 26" fill="none" xmlns="http://www.w3.org/2000/svg">
<path fill-rule="evenodd" clip-rule="evenodd" d="M19.249 9.08028H23.8327C23.8327 5.39998 21.6275 3.25 17.8912 3.25H8.1075C4.3712 3.25 2.16602 5.39998 2.16602 9.03334V16.9667C2.16602 20.6 4.3712 22.75 8.1075 22.75H17.8912C21.6275 22.75 23.8327 20.6 23.8327 16.9667V16.6287H19.249C17.1217 16.6287 15.3971 14.9473 15.3971 12.8733C15.3971 10.7992 17.1217 9.11784 19.249 9.11784V9.08028ZM19.249 10.6951H23.0238C23.4705 10.6951 23.8327 11.0482 23.8327 11.4838V14.2252C23.8275 14.6586 23.4684 15.0088 23.0238 15.0138H19.3356C18.2587 15.028 17.317 14.3091 17.0727 13.2864C16.9504 12.6515 17.1221 11.9964 17.5418 11.4966C17.9616 10.9968 18.5865 10.7034 19.249 10.6951ZM19.4127 13.5774H19.769C20.2264 13.5774 20.5971 13.2159 20.5971 12.77C20.5971 12.3241 20.2264 11.9626 19.769 11.9626H19.4127C19.1939 11.9601 18.9833 12.043 18.8277 12.193C18.6721 12.3429 18.5845 12.5473 18.5845 12.7606C18.5845 13.2081 18.9538 13.5723 19.4127 13.5774ZM7.29861 9.08028H13.4134C13.8708 9.08028 14.2416 8.71879 14.2416 8.27287C14.2416 7.82695 13.8708 7.46546 13.4134 7.46546H7.29861C6.84497 7.46543 6.47573 7.82123 6.47046 8.26348C6.47043 8.71095 6.83968 9.07514 7.29861 9.08028Z" fill="#99A3AC"/>
</svg>
